<svg viewBox="0 0 268.51 40.57" xmlns="http://www.w3.org/2000/svg" data-name="Layer 1" id="Layer_1">
  <defs>
    <style>
      .cls-1 {
        fill: #f16739;
      }

      .cls-1, .cls-2, .cls-3, .cls-4 {
        stroke-width: 0px;
      }

      .cls-2 {
        fill: #ffcc02;
      }

      .cls-3 {
        fill: #f79838;
      }

      .cls-4 {
        fill: #009949;
      }
    </style>
  </defs>
  <g>
    <path d="m54.37,33.69v6.87h-22.77V0h8.67v33.69h14.11Z" class="cls-4"></path>
    <path d="m77.21,12.41h7.76v28.16h-7.76v-4.72c-2.63,3.23-5.68,4.7-9.84,4.7-7.94,0-13.62-5.93-13.62-14.21s5.99-14.86,14.23-14.86c3.85,0,6.48,1.29,9.22,4.41v-3.47Zm-16.15,13.8c0,4.76,3.24,8.34,7.45,8.34s7.82-3.88,7.82-8.58-3.18-8.22-7.76-8.22-7.51,3.47-7.51,8.46Z" class="cls-4"></path>
    <path d="m219.58,12.41h7.76v28.16h-7.76v-4.72c-2.63,3.23-5.68,4.7-9.84,4.7-7.94,0-13.62-5.93-13.62-14.21s5.99-14.86,14.23-14.86c3.85,0,6.48,1.29,9.22,4.41v-3.47Zm-16.15,13.8c0,4.76,3.24,8.34,7.45,8.34s7.82-3.88,7.82-8.58-3.18-8.22-7.76-8.22-7.51,3.47-7.51,8.46Z" class="cls-4"></path>
    <path d="m139.57,0h7.76v40.57h-7.76v-4.72c-2.63,3.23-5.68,4.7-9.84,4.7-7.94,0-13.62-5.93-13.62-14.21s5.99-14.86,14.23-14.86c3.85,0,6.48,1.29,9.22,4.41V0Zm-16.15,26.21c0,4.76,3.24,8.34,7.45,8.34s7.82-3.88,7.82-8.58-3.18-8.22-7.76-8.22-7.51,3.47-7.51,8.46Z" class="cls-4"></path>
    <path d="m96.79,12.41v3.47c2.15-3.22,4.3-4.44,7.97-4.44,2.78,0,5.44.97,7.21,2.62,1.9,1.82,2.59,4.08,2.59,8.7v17.82h-8.03v-17.46c0-1.58-.19-2.49-.7-3.28-.76-1.16-2.28-1.89-3.86-1.89-3.1,0-5.19,2.25-5.19,5.53v17.09h-8.03V12.41h8.03Z" class="cls-4"></path>
    <path d="m158.15,28.35v.52c0,2.62,2.36,4.54,5.51,4.54s5.33-1.81,5.33-4.14c0-1.22-.61-2.33-1.64-3.09s-1.76-1.05-4.91-2.16c-8.84-3.03-12-6.23-12-12.17,0-7.05,5.39-11.77,13.33-11.77s12.96,4.43,13.63,11.88h-8.36c-.3-3.26-2-4.83-5.27-4.83-2.97,0-4.97,1.63-4.97,4.08,0,1.57.85,2.8,2.48,3.67,1.09.58,1.76.87,4.73,1.92,4.42,1.57,6.66,2.68,8.42,4.31,2.12,1.92,3.21,4.54,3.21,7.51,0,7.11-5.57,11.82-13.93,11.82s-13.69-4.66-13.63-12.12h8.06Z" class="cls-4"></path>
    <path d="m190.2,32.29c0,1.34.51,1.7,2.28,1.82l3.04-.27v6.45l-8.04.27c-3.92-.12-5.38-1.64-5.31-5.35v-16.42h-3.35v-6.51h3.35v-7.54h8.03v7.54l5.32-.27v6.51l-5.32.27v13.5Z" class="cls-4"></path>
    <path d="m240.24,32.29c0,1.34.51,1.7,2.28,1.82l3.04-.27v6.45l-8.04.27c-3.92-.12-5.38-1.64-5.31-5.35v-16.42h-3.35v-6.51h3.35v-7.54h8.03v7.54l5.32-.27v6.51l-5.32.27v13.5Z" class="cls-4"></path>
    <path d="m260.82,20.44v-.47c0-1.63-1.52-2.8-3.57-2.8-1.88,0-3.09.99-3.09,2.45,0,.7.3,1.4.79,1.75.85.64.91.64,4.79,1.81,6.3,1.86,8.78,4.25,8.78,8.62,0,5.24-4.36,8.74-10.9,8.74s-10.72-3.26-11.03-8.85h7.39c.36,2.33,1.45,3.38,3.69,3.38,1.82,0,3.09-1.05,3.09-2.56,0-1.63-1.09-2.39-5.21-3.61-6.06-1.75-8.78-4.37-8.78-8.62,0-5.13,4.3-8.56,10.84-8.56s10.3,3.26,10.48,8.74h-7.27Z" class="cls-4"></path>
  </g>
  <rect height="30.39" width="8.67" y="10.18" x="20.95" class="cls-1"></rect>
  <rect height="22.81" width="8.67" y="17.75" x="10.47" class="cls-3"></rect>
  <rect height="15.19" width="8.67" y="25.37" class="cls-2"></rect>
</svg>